<?xml version="1.0" encoding="utf-8"?>
<!-- Generator: Adobe Illustrator 26.0.3, SVG Export Plug-In . SVG Version: 6.00 Build 0)  -->
<svg version="1.1" xmlns="http://www.w3.org/2000/svg" xmlns:xlink="http://www.w3.org/1999/xlink" x="0px" y="0px"
	 viewBox="0 0 994.64 823" style="enable-background:new 0 0 994.64 823;" xml:space="preserve">
<style type="text/css">
	
		.st0{clip-path:url(#SVGID_00000158736912633828690340000009547193810409533353_);fill:none;stroke:#FFFFFF;stroke-width:0.5335;stroke-linejoin:round;stroke-miterlimit:10;}
	
		.st1{clip-path:url(#SVGID_00000047025985840322476950000000468845435369123751_);fill:none;stroke:#FFFFFF;stroke-width:0.5335;stroke-linejoin:round;stroke-miterlimit:10;}
	
		.st2{clip-path:url(#SVGID_00000091714669135485143450000008757822446861106837_);fill:none;stroke:#FFFFFF;stroke-width:0.5335;stroke-linejoin:round;stroke-miterlimit:10;}
	
		.st3{clip-path:url(#SVGID_00000050638021616786818340000008847855364965898661_);fill:none;stroke:#FFFFFF;stroke-width:0.5335;stroke-linejoin:round;stroke-miterlimit:10;}
	
		.st4{clip-path:url(#SVGID_00000070096305877452921860000010650070685425498519_);fill:none;stroke:#FFFFFF;stroke-width:0.5335;stroke-linejoin:round;stroke-miterlimit:10;}
	.st5{fill:none;stroke:#FFFFFF;stroke-width:0.5335;stroke-linejoin:round;stroke-miterlimit:10;}
	.st6{fill:none;stroke:#9F1D20;stroke-width:3;stroke-linejoin:round;stroke-miterlimit:10;}
	.st7{fill:none;stroke:#F19720;stroke-width:3;stroke-linejoin:round;stroke-miterlimit:10;}
	.st8{fill:none;stroke:#428FB7;stroke-width:3;stroke-linejoin:round;stroke-miterlimit:10;}
	.st9{fill:none;stroke:#0186AB;stroke-width:3;stroke-linejoin:round;stroke-miterlimit:10;}
	.st10{fill:none;stroke:#000000;stroke-width:1.067;stroke-linejoin:round;stroke-miterlimit:10;}
	.st11{fill:none;stroke:#333333;stroke-width:1.067;stroke-linejoin:round;stroke-miterlimit:10;}
	.st12{fill:none;}
	.st13{fill:#FFFFFF;stroke:#000000;stroke-miterlimit:10;}
	.st14{fill:#FFFFFF;}
	.st15{fill:none;stroke:#E4D7D1;stroke-miterlimit:10;}
	.st16{fill:none;stroke:#E4D7D1;stroke-miterlimit:10;stroke-dasharray:12.0749,12.0749;}
	.st17{font-family:'MyriadPro-Regular';}
	.st18{font-size:18px;}
	.st19{font-size:30px;}
	.st20{fill:#454646;}
	.st21{font-size:15px;}
	.st22{fill:#474848;}
	.st23{fill:#444545;}
	.st24{fill:#4D4D4D;}
</style>
<g id="Layer_1">
	<g>
		<defs>
			<rect id="SVGID_1_" x="113.96" y="598" width="748.56" height="1"/>
		</defs>
		<clipPath id="SVGID_00000138566929637611857600000012803652111032775568_">
			<use xlink:href="#SVGID_1_"  style="overflow:visible;"/>
		</clipPath>
		
			<line style="clip-path:url(#SVGID_00000138566929637611857600000012803652111032775568_);fill:none;stroke:#FFFFFF;stroke-width:0.5335;stroke-linejoin:round;stroke-miterlimit:10;" x1="113.96" y1="598.5" x2="862.52" y2="598.5"/>
	</g>
	<g>
		<defs>
			<rect id="SVGID_00000096033068864759501970000010999516516131542170_" x="113.96" y="461" width="748.56" height="2"/>
		</defs>
		<clipPath id="SVGID_00000102544361425290833490000002778865493254779781_">
			<use xlink:href="#SVGID_00000096033068864759501970000010999516516131542170_"  style="overflow:visible;"/>
		</clipPath>
		
			<line style="clip-path:url(#SVGID_00000102544361425290833490000002778865493254779781_);fill:none;stroke:#FFFFFF;stroke-width:0.5335;stroke-linejoin:round;stroke-miterlimit:10;" x1="113.96" y1="462.01" x2="862.52" y2="462.01"/>
	</g>
	<g>
		<defs>
			<rect id="SVGID_00000065058444246696580010000001743020040239673273_" x="201" y="109.48" width="1" height="575.44"/>
		</defs>
		<clipPath id="SVGID_00000093897225007872515260000008520102272401185936_">
			<use xlink:href="#SVGID_00000065058444246696580010000001743020040239673273_"  style="overflow:visible;"/>
		</clipPath>
		
			<line style="clip-path:url(#SVGID_00000093897225007872515260000008520102272401185936_);fill:none;stroke:#FFFFFF;stroke-width:0.5335;stroke-linejoin:round;stroke-miterlimit:10;" x1="201.71" y1="684.93" x2="201.71" y2="109.48"/>
	</g>
	<g>
		<defs>
			<rect id="SVGID_00000129921735009223352630000011380149633119650721_" x="380" y="109.48" width="2" height="575.44"/>
		</defs>
		<clipPath id="SVGID_00000005971072207507385990000002880976568519964351_">
			<use xlink:href="#SVGID_00000129921735009223352630000011380149633119650721_"  style="overflow:visible;"/>
		</clipPath>
		
			<line style="clip-path:url(#SVGID_00000005971072207507385990000002880976568519964351_);fill:none;stroke:#FFFFFF;stroke-width:0.5335;stroke-linejoin:round;stroke-miterlimit:10;" x1="380.79" y1="684.93" x2="380.79" y2="109.48"/>
	</g>
	<g>
		<defs>
			<rect id="SVGID_00000142884857823709919620000018160633795142656700_" x="559" y="109.48" width="2" height="575.44"/>
		</defs>
		<clipPath id="SVGID_00000005237893157183544110000003401127025548328361_">
			<use xlink:href="#SVGID_00000142884857823709919620000018160633795142656700_"  style="overflow:visible;"/>
		</clipPath>
		
			<line style="clip-path:url(#SVGID_00000005237893157183544110000003401127025548328361_);fill:none;stroke:#FFFFFF;stroke-width:0.5335;stroke-linejoin:round;stroke-miterlimit:10;" x1="559.87" y1="684.93" x2="559.87" y2="109.48"/>
	</g>
	<g>
		<line class="st5" x1="738.95" y1="684.93" x2="738.95" y2="109.48"/>
	</g>
	<polyline class="st6" points="147.98,648.62 183.8,646.07 219.62,644.12 255.43,640.88 291.25,637.54 327.07,631.63 362.88,624.34 
		398.7,612.94 434.52,600.82 470.33,594.73 506.15,581.24 541.96,567.7 577.78,554.77 613.6,542.46 649.41,532.61 685.23,531.25 
		721.05,523.12 756.86,508.05 792.68,502.73 828.5,494.56 	"/>
	<polyline class="st7" points="147.98,585.26 183.8,578.79 219.62,558.86 255.43,544.6 291.25,545.71 327.07,538 362.88,521.63 
		398.7,504.44 434.52,511.81 470.33,520.04 506.15,514.66 541.96,525.62 577.78,524.21 613.6,524.5 649.41,544.77 685.23,540.33 
		721.05,532.72 756.86,518.96 792.68,518.09 828.5,507.86 	"/>
	<polyline class="st8" points="147.98,658.77 183.8,657.23 219.62,655.16 255.43,652.44 291.25,648.09 327.07,643.19 362.88,637.03 
		398.7,628.4 434.52,631.57 470.33,626.67 506.15,618.81 541.96,611.15 577.78,606.45 613.6,608.94 649.41,621.41 685.23,619.48 
		721.05,621.08 756.86,624.7 792.68,622.25 828.5,624.62 	"/>
	<polyline class="st9" points="147.98,440.3 183.8,408.46 219.62,366.1 255.43,330.29 291.25,302.86 327.07,285.71 362.88,264.38 
		398.7,218.54 434.52,184.99 470.33,163.09 506.15,153.34 541.96,171.82 577.78,203.2 613.6,224.66 649.41,234.18 685.23,230.07 
		721.05,225.36 756.86,200.98 792.68,165.59 828.5,135.64 	"/>
	<line class="st10" x1="113.96" y1="684.93" x2="113.96" y2="109.48"/>
	<line class="st11" x1="111.22" y1="666.74" x2="113.96" y2="666.74"/>
	<line class="st11" x1="111.22" y1="530.25" x2="113.96" y2="530.25"/>
	<line class="st11" x1="111.22" y1="393.76" x2="113.96" y2="393.76"/>
	<line class="st11" x1="111.22" y1="257.27" x2="113.96" y2="257.27"/>
	<line class="st11" x1="111.22" y1="120.78" x2="113.96" y2="120.78"/>
	<line class="st10" x1="113.96" y1="684.93" x2="862.52" y2="684.93"/>
	<line class="st11" x1="291.25" y1="687.66" x2="291.25" y2="684.93"/>
	<line class="st11" x1="470.33" y1="687.66" x2="470.33" y2="684.93"/>
	<line class="st11" x1="649.41" y1="687.66" x2="649.41" y2="684.93"/>
	<line class="st11" x1="828.5" y1="687.66" x2="828.5" y2="684.93"/>
	<line class="st12" x1="113.96" y1="120.78" x2="855" y2="120.78"/>
	<line class="st12" x1="113.96" y1="257.27" x2="855" y2="257.27"/>
	<line class="st12" x1="918" y1="333" x2="1659.04" y2="333"/>
	<line class="st12" x1="113.96" y1="257.27" x2="855" y2="257.27"/>
	<line class="st12" x1="313" y1="341" x2="312" y2="339"/>
	<line class="st12" x1="846" y1="250" x2="112.96" y2="255.27"/>
	<line class="st13" x1="795" y1="397.2" x2="794" y2="395.2"/>
	<g>
		<path class="st14" d="M862.52,120.78"/>
	</g>
	<g>
		<path class="st14" d="M113.96,120.78"/>
	</g>
	<g>
		<path class="st14" d="M862.52,257.27"/>
	</g>
	<g>
		<path class="st14" d="M111.22,257.27"/>
	</g>
	<g>
		<path class="st14" d="M862.52,396.23"/>
	</g>
	<g>
		<path class="st14" d="M113.96,393.76"/>
	</g>
	<path class="st13" d="M862.52,670"/>
	<path class="st13" d="M113.96,666.74"/>
	<path class="st13" d="M1687.56,609.7"/>
	<path class="st13" d="M939,606.45"/>
	<path class="st13" d="M862.52,670"/>
	<path class="st13" d="M113.96,666.74"/>
	<line class="st13" x1="890" y1="679" x2="888" y2="679"/>
	<g>
		<path class="st14" d="M862.07,532.73"/>
	</g>
	<g>
		<path class="st14" d="M113.51,530.27"/>
	</g>
	<g>
		<path class="st14" d="M862.98,259.73"/>
	</g>
	<g>
		<path class="st14" d="M114.41,257.27"/>
	</g>
	<g>
		<line class="st14" x1="114.72" y1="120.71" x2="863.29" y2="123.17"/>
		<g>
			<line class="st15" x1="114.72" y1="120.71" x2="120.72" y2="120.73"/>
			<line class="st16" x1="132.8" y1="120.77" x2="851.25" y2="123.13"/>
			<line class="st15" x1="857.29" y1="123.15" x2="863.29" y2="123.17"/>
		</g>
	</g>
	<text transform="matrix(1 0 0 1 29.3235 99.0041)" class="st17 st18">Defense Spending in US$ (Billion)</text>
	<text transform="matrix(1 0 0 1 28.588 33.419)" class="st17 st19">A New Cold War?</text>
	<text transform="matrix(1 0 0 1 833.2012 146.5618)" class="st17 st18">United States</text>
	<text transform="matrix(1 0 0 1 841.8397 494.5591)" class="st17 st18">China</text>
	<text transform="matrix(1 0 0 1 810.7472 530.254)" class="st17 st18">European Union</text>
	<text transform="matrix(1 0 0 1 822.52 648.6167)" class="st17 st18">Russia</text>
	<text transform="matrix(1 0 0 1 29.3381 57)" class="st17 st18">Western powers increase their defense spending as China competes for influence with its growing economic clout</text>
	<g>
		<line class="st14" x1="119.44" y1="256.04" x2="868" y2="258.5"/>
		<g>
			<line class="st15" x1="119.44" y1="256.04" x2="125.44" y2="256.06"/>
			<line class="st16" x1="137.51" y1="256.1" x2="855.96" y2="258.46"/>
			<line class="st15" x1="862" y1="258.48" x2="868" y2="258.5"/>
		</g>
	</g>
	<path id="SVGID_x5F_00000172428224028240697350000001653882804618814877_x5F_" class="st12" d="M113.73,394.69l748.56,2.47"/>
	<text>	<textPath  xlink:href="#SVGID_x5F_00000172428224028240697350000001653882804618814877_x5F_" startOffset="73.798%">
	</textPath>
</text>
	<g>
		<line class="st14" x1="114.96" y1="530.5" x2="863.52" y2="532.97"/>
		<g>
			<line class="st15" x1="114.96" y1="530.5" x2="120.96" y2="530.52"/>
			<line class="st16" x1="133.03" y1="530.56" x2="851.48" y2="532.93"/>
			<line class="st15" x1="857.52" y1="532.95" x2="863.52" y2="532.97"/>
		</g>
	</g>
	<text transform="matrix(1 0 0 1 183.6319 197.022)"><tspan x="0" y="0" class="st17 st18">US starts increasing defense</tspan><tspan x="0" y="21.6" class="st17 st18">spending in response to </tspan><tspan x="0" y="43.2" class="st17 st18">War on Terror campaign</tspan></text>
	<text transform="matrix(1 0 0 1 589.6055 272.4697)"><tspan x="0" y="0" class="st17 st18">US and EU reverse their falling trends</tspan><tspan x="0" y="21.6" class="st17 st18">as the Chinse defense spending</tspan><tspan x="0" y="43.2" class="st17 st18">exceeds that of the EU</tspan></text>
	<polyline class="st12" points="742,377 740.61,377 740.61,379.92 	"/>
	<g>
		<line class="st14" x1="115.41" y1="394.45" x2="863.97" y2="396.92"/>
		<g>
			<line class="st15" x1="115.41" y1="394.45" x2="121.41" y2="394.47"/>
			<line class="st16" x1="133.48" y1="394.51" x2="851.94" y2="396.88"/>
			<line class="st15" x1="857.97" y1="396.9" x2="863.97" y2="396.92"/>
		</g>
	</g>
	<text transform="matrix(1 0 0 1 571.5755 463.0001)"><tspan x="0" y="0" class="st17 st18">Chinese defense spending increases</tspan><tspan x="0" y="21.6" class="st17 st18">10x between 2001 and 2020</tspan></text>
	<text transform="matrix(1 0 0 1 55.4158 745.2598)" class="st20 st17 st21">Source: World Development Indicators, World Bank</text>
	<text transform="matrix(1 0 0 1 56.5557 770.8008)"><tspan x="0" y="0" class="st22 st17 st21">Note: The world is seeing a renewed increase in defense spending as United States and European Union gear</tspan><tspan x="0" y="18" class="st22 st17 st21">to counter the growing influence of China. China has increased its defense spending by 10 times as it rose from</tspan><tspan x="0" y="36" class="st22 st17 st21">$26 Billion in 2001 to $252 Billion in 2020.   </tspan></text>
	<text transform="matrix(1 0 0 1 134.5405 702.8555)" class="st23 st17 st18">2001</text>
	<line class="st11" x1="147.98" y1="688.03" x2="147.98" y2="686.3"/>
</g>
<g id="Years">
	<text transform="matrix(1 0 0 1 814.3369 703.3174)" class="st24 st17 st18">2020</text>
	<text transform="matrix(1 0 0 1 635.2549 704.1636)" class="st24 st17 st18">2015</text>
	<text transform="matrix(1 0 0 1 276.3696 703.856)" class="st24 st17 st18">2005</text>
	<text transform="matrix(1 0 0 1 456.9512 704.0098)" class="st24 st17 st18">2010</text>
</g>
<g id="Values">
	<text transform="matrix(1 0 0 1 99.1328 669.8906)" class="st24 st17 st18">0</text>
	<text transform="matrix(1 0 0 1 81.3438 533.4023)" class="st24 st17 st18">200</text>
	<text transform="matrix(1 0 0 1 81.3438 396.9102)" class="st24 st17 st18">400</text>
	<text transform="matrix(1 0 0 1 82.3438 260.4219)" class="st24 st17 st18">600</text>
	<text transform="matrix(1 0 0 1 82.3438 123.9297)" class="st24 st17 st18">800</text>
</g>
</svg>
