<?xml version="1.0" encoding="utf-8"?>
<!-- Generator: Adobe Illustrator 26.0.3, SVG Export Plug-In . SVG Version: 6.00 Build 0)  -->
<svg version="1.1" id="Layer_1" xmlns="http://www.w3.org/2000/svg" xmlns:xlink="http://www.w3.org/1999/xlink" x="0px" y="0px"
	 viewBox="0 0 960 786" style="enable-background:new 0 0 960 786;" xml:space="preserve">
<style type="text/css">
	.st0{fill:none;stroke:#EBEBEB;stroke-width:1.067;stroke-linejoin:round;stroke-miterlimit:10;}
	.st1{fill:#67686B;}
	.st2{fill:#EE2C39;}
	.st3{fill:#8A2D1B;}
	.st4{fill:#F29720;}
	.st5{fill:#FEBC15;}
	.st6{fill:#4A5866;}
	.st7{fill:#418EB6;}
	.st8{fill:#92B7D6;}
	.st9{display:none;fill:#4D4D4D;}
	.st10{font-family:'ArialMT';}
	.st11{font-size:8.8px;}
	.st12{fill:#4D4D4D;}
	.st13{font-family:'MyriadPro-Regular';}
	.st14{font-size:17px;}
	.st15{fill:#C5E1AC;stroke:#EBEBEB;stroke-width:1.067;stroke-linejoin:round;stroke-miterlimit:10;stroke-dasharray:12;}
	.st16{fill:#C5E1AC;stroke:#EBEBEB;stroke-width:1.067;stroke-linejoin:round;stroke-miterlimit:10;}
	.st17{fill:#BABCBE;}
	.st18{fill:#231F20;}
	.st19{font-size:20px;}
	.st20{fill:#FFFFFF;}
	.st21{font-size:25px;}
	.st22{fill:#002A1F;}
	.st23{font-size:22px;}
	.st24{font-size:30px;}
	.st25{font-size:18px;}
	.st26{font-size:15px;}
	.st27{fill:#444545;}
</style>
<g>
	<path class="st0" d="M786.52,470.3"/>
	<path class="st0" d="M47.75,470.3"/>
</g>
<g>
	<path class="st0" d="M810.4,300.76"/>
	<path class="st0" d="M252,303.84"/>
</g>
<g>
	<g>
		<path class="st1" d="M786.52,137.37"/>
	</g>
	<g>
		<path class="st1" d="M648,137.37"/>
	</g>
</g>
<polygon class="st2" points="80.32,426.89 115.68,418.19 151.02,391.36 186.37,363.85 221.72,346.96 257.07,327.79 292.41,293.18 
	327.76,261.66 363.11,274.77 398.46,252.22 433.81,214.52 469.16,208.09 504.5,196.8 539.85,183.66 575.2,201.33 610.55,187.59 
	645.9,159.06 681.24,124.06 716.59,113.64 751.94,122.27 751.94,135.96 716.59,128.14 681.24,138.42 645.9,172.79 610.55,200.3 
	575.2,214.29 539.85,198.69 504.5,212.17 469.16,223.31 433.81,229.44 398.46,265.68 363.11,286.21 327.76,274.59 292.41,305.41 
	257.07,338.77 221.72,356.73 186.37,372.39 151.02,398.82 115.68,424.52 80.32,433.05 "/>
<polygon class="st3" points="81.32,433.05 116.68,424.52 152.02,398.82 187.37,372.39 222.72,356.73 258.07,338.77 293.41,305.41 
	328.76,274.59 364.11,286.21 399.46,265.68 434.81,229.44 470.16,223.31 505.5,212.17 540.85,198.69 576.2,214.29 611.55,200.3 
	646.9,172.79 682.24,138.42 717.59,128.14 752.94,135.96 752.94,258.5 717.59,246.99 682.24,254.07 646.9,275.25 611.55,293.8 
	576.2,306.35 540.85,285.88 505.5,291.83 470.16,294.33 434.81,292.29 399.46,316.34 364.11,328.67 328.76,312.82 293.41,334.96 
	258.07,361.67 222.72,375.75 187.37,388.67 152.02,412.64 116.68,436.76 81.32,444.2 "/>
<polygon class="st4" points="81.32,444.2 116.68,436.76 152.02,412.64 187.37,388.67 222.72,375.75 258.07,361.67 293.41,334.96 
	328.76,312.82 364.11,328.67 399.46,316.34 434.81,292.29 470.16,294.33 505.5,291.83 540.85,285.88 576.2,306.35 611.55,293.8 
	646.9,275.25 682.24,254.07 717.59,246.99 752.94,258.5 752.94,385.78 717.59,377.58 682.24,387.01 646.9,397.89 611.55,409.37 
	576.2,419.11 540.85,416.01 505.5,419.14 470.16,416.16 434.81,423.32 399.46,437.41 364.11,451.13 328.76,448 293.41,457.42 
	258.07,467.42 222.72,474.86 187.37,483.56 152.02,495.14 116.68,503.77 81.32,505.69 "/>
<polygon class="st5" points="81.32,505.69 116.68,503.77 152.02,495.14 187.37,483.56 222.72,474.86 258.07,467.42 293.41,457.42 
	328.76,448 364.11,451.13 399.46,437.41 434.81,423.32 470.16,416.16 505.5,419.14 540.85,416.01 576.2,419.11 611.55,409.37 
	646.9,397.89 682.24,387.01 717.59,377.58 752.94,385.78 752.94,407.93 717.59,401.47 682.24,409.49 646.9,419.96 611.55,428.47 
	576.2,436.62 540.85,432.98 505.5,434.6 470.16,431.37 434.81,438.49 399.46,451.36 364.11,462.3 328.76,457.98 293.41,467.54 
	258.07,475.25 222.72,481.69 187.37,489.46 152.02,500.2 116.68,508.05 81.32,509.73 "/>
<polygon class="st6" points="81.32,509.73 116.68,508.05 152.02,500.2 187.37,489.46 222.72,481.69 258.07,475.25 293.41,467.54 
	328.76,457.98 364.11,462.3 399.46,451.36 434.81,438.49 470.16,431.37 505.5,434.6 540.85,432.98 576.2,436.62 611.55,428.47 
	646.9,419.96 682.24,409.49 717.59,401.47 752.94,407.93 752.94,450.02 717.59,444.33 682.24,451.41 646.9,461 611.55,470.12 
	576.2,473.62 540.85,473.75 505.5,477.98 470.16,483.57 434.81,490.38 399.46,499.29 364.11,506.33 328.76,500.48 293.41,505.66 
	258.07,513.55 222.72,521.9 187.37,530.19 152.02,537.82 116.68,542.87 81.32,546.14 "/>
<polygon class="st7" points="81.32,546.14 116.68,542.87 152.02,537.82 187.37,530.19 222.72,521.9 258.07,513.55 293.41,505.66 
	328.76,500.48 364.11,506.33 399.46,499.29 434.81,490.38 470.16,483.57 505.5,477.98 540.85,473.75 576.2,473.62 611.55,470.12 
	646.9,461 682.24,451.41 717.59,444.33 752.94,450.02 752.94,462.37 717.59,458.38 682.24,465.21 646.9,474.11 611.55,480.75 
	576.2,484.96 540.85,490.88 505.5,497.06 470.16,501.96 434.81,507.4 399.46,511.98 364.11,516.51 328.76,514.31 293.41,516.48 
	258.07,521.79 222.72,528.26 187.37,535.11 152.02,541.4 116.68,545.74 81.32,548.69 "/>
<polygon class="st8" points="81.32,548.69 116.68,545.74 152.02,541.4 187.37,535.11 222.72,528.26 258.07,521.79 293.41,516.48 
	328.76,514.31 364.11,516.51 399.46,511.98 434.81,507.4 470.16,501.96 505.5,497.06 540.85,490.88 576.2,484.96 611.55,480.75 
	646.9,474.11 682.24,465.21 717.59,458.38 752.94,462.37 752.94,636.77 81.32,636.77 "/>
<text transform="matrix(1 0 0 1 37.918 639.918)" class="st9 st10 st11">0</text>
<text transform="matrix(1 0 0 1 757.3071 461.375)" class="st12 st13 st14">20</text>
<text transform="matrix(1 0 0 1 757.688 294.6572)" class="st12 st13 st14">40</text>
<text transform="matrix(1 0 0 1 758.002 125.9707)" class="st12 st13 st14">60</text>
<text transform="matrix(1 0 0 1 212.9297 654.1562)" class="st12 st13 st14">2005</text>
<text transform="matrix(1 0 0 1 389.668 654.1562)" class="st12 st13 st14">2010</text>
<text transform="matrix(1 0 0 1 566.4102 652.1562)" class="st12 st13 st14">2015</text>
<text transform="matrix(1 0 0 1 743.1523 651.1562)" class="st12 st13 st14">2020</text>
<path class="st15" d="M634,134.19"/>
<path class="st16" d="M786.36,131.09"/>
<line class="st12" x1="786.35" y1="127.81" x2="754.94" y2="127.92"/>
<line class="st12" x1="678" y1="128.14" x2="637" y2="127.87"/>
<line class="st12" x1="784.93" y1="297.71" x2="753.52" y2="297.82"/>
<line class="st17" x1="287" y1="297.76" x2="234" y2="297.76"/>
<line class="st12" x1="-85" y1="389" x2="-165" y2="389"/>
<line class="st12" x1="787.01" y1="464.18" x2="753.6" y2="464.28"/>
<line class="st18" x1="42.39" y1="636.81" x2="795" y2="636.77"/>
<text transform="matrix(1 0 0 1 770.1371 371.4998)" class="st13 st19">GDP in US$ (Trillion)</text>
<text transform="matrix(1 0 0 1 339.8271 310.844)" class="st20 st13 st21">China</text>
<text transform="matrix(1 0 0 1 450.3135 371.4998)" class="st22 st13 st21">European Union</text>
<text transform="matrix(1 0 0 1 441.6018 581.4661)" class="st18 st13 st21">United States</text>
<text transform="matrix(1 0 0 1 67.45 654.3213)" class="st12 st13 st14">2001</text>
<text transform="matrix(1 0 0 1 324.6494 489)" class="st20 st13 st21">Japan</text>
<text transform="matrix(1 0 0 1 548.3486 167.3613)" class="st13 st21">Canada</text>
<text transform="matrix(1 0 0 1 460.0034 496.5093)" class="st13 st23">Russia</text>
<text transform="matrix(1 0 0 1 686.8027 401.4735)" class="st22 st13 st21">India</text>
<text transform="matrix(1 0 0 1 68.8452 35.6396)" class="st13 st24">China Emerges as an Economic Giant</text>
<text transform="matrix(1 0 0 1 69.355 62)" class="st13 st25">Decades of economic progress sees China increase its share of the world economy and enhanced its influence </text>
<text transform="matrix(1 0 0 1 77.8569 167.3613)"><tspan x="0" y="0" class="st13 st25">In 2020, these 7 economies had a combined GDP</tspan><tspan x="1.96" y="21.6" class="st13 st25">of $60 Trillion and represented 71% of the world</tspan><tspan x="147.48" y="43.2" class="st13 st25">economy</tspan></text>
<text transform="matrix(1 0 0 1 437.6724 244.992)"><tspan x="0" y="0" class="st20 st13 st26">China’s share of the world economy</tspan><tspan x="-2.7" y="18" class="st20 st13 st26">rises from 5% in 2000 to 15% in 2020</tspan></text>
<text transform="matrix(1 0 0 1 70.9819 718.7803)" class="st13 st23"> </text>
<text transform="matrix(1 0 0 1 68.2151 706.0908)"><tspan x="0" y="0" class="st27 st13 st26">Source: World Development Indicators, World Bank</tspan><tspan x="0" y="36" class="st27 st13 st26">Note: China played a major part in driving the world’s economic growth. It saw its economy grow from $1.3 Trillion in 2001 to </tspan><tspan x="0" y="54" class="st27 st13 st26">$14.7 Trillion in 2020. The European Union and the United States saw their economies grow in absolute size but their share in </tspan><tspan x="0" y="72" class="st27 st13 st26">the world economy fell as other major economies such as India, Indonesia and South Korea began catching up. </tspan></text>
</svg>
